<?xml version="1.0" encoding="UTF-8" standalone="no"?>
<!-- Created with Inkscape (http://www.inkscape.org/) -->

<svg
   xmlns:dc="http://purl.org/dc/elements/1.1/"
   xmlns:cc="http://creativecommons.org/ns#"
   xmlns:rdf="http://www.w3.org/1999/02/22-rdf-syntax-ns#"
   xmlns:svg="http://www.w3.org/2000/svg"
   xmlns="http://www.w3.org/2000/svg"
   xmlns:sodipodi="http://sodipodi.sourceforge.net/DTD/sodipodi-0.dtd"
   xmlns:inkscape="http://www.inkscape.org/namespaces/inkscape"
   version="1.1"
   id="svg2"
   xml:space="preserve"
   width="37.638889cm"
   height="17.638889cm"
   viewBox="0 0 1422.5722 666.66669"
   sodipodi:docname="admin.svg"
   inkscape:version="0.92.1 r15371"
   inkscape:export-filename="C:\Users\Josue\Desktop\Firebase\admin.png"
   inkscape:export-xdpi="96"
   inkscape:export-ydpi="96"><metadata
     id="metadata8"><rdf:RDF><cc:Work
         rdf:about=""><dc:format>image/svg+xml</dc:format><dc:type
           rdf:resource="http://purl.org/dc/dcmitype/StillImage" /><dc:title></dc:title></cc:Work></rdf:RDF></metadata><defs
     id="defs6"><clipPath
       clipPathUnits="userSpaceOnUse"
       id="clipPath20"><path
         d="M 0,500 H 500 V 0 H 0 Z"
         id="path18"
         inkscape:connector-curvature="0" /></clipPath><clipPath
       clipPathUnits="userSpaceOnUse"
       id="clipPath48"><path
         d="M 0,500 H 500 V 0 H 0 Z"
         id="path46"
         inkscape:connector-curvature="0" /></clipPath><clipPath
       clipPathUnits="userSpaceOnUse"
       id="clipPath416"><path
         d="M 0,500 H 500 V 0 H 0 Z"
         id="path414"
         inkscape:connector-curvature="0" /></clipPath><clipPath
       clipPathUnits="userSpaceOnUse"
       id="clipPath440"><path
         d="M 0,500 H 500 V 0 H 0 Z"
         id="path438"
         inkscape:connector-curvature="0" /></clipPath><clipPath
       clipPathUnits="userSpaceOnUse"
       id="clipPath460"><path
         d="M 0,500 H 500 V 0 H 0 Z"
         id="path458"
         inkscape:connector-curvature="0" /></clipPath><clipPath
       clipPathUnits="userSpaceOnUse"
       id="clipPath500"><path
         d="M 0,500 H 500 V 0 H 0 Z"
         id="path498"
         inkscape:connector-curvature="0" /></clipPath><clipPath
       clipPathUnits="userSpaceOnUse"
       id="clipPath552"><path
         d="M 0,500 H 500 V 0 H 0 Z"
         id="path550"
         inkscape:connector-curvature="0" /></clipPath><clipPath
       clipPathUnits="userSpaceOnUse"
       id="clipPath586"><path
         d="M 0,500 H 500 V 0 H 0 Z"
         id="path584"
         inkscape:connector-curvature="0" /></clipPath></defs><sodipodi:namedview
     pagecolor="#ffffff"
     bordercolor="#666666"
     borderopacity="1"
     objecttolerance="10"
     gridtolerance="10"
     guidetolerance="10"
     inkscape:pageopacity="0"
     inkscape:pageshadow="2"
     inkscape:window-width="1366"
     inkscape:window-height="705"
     id="namedview4"
     showgrid="false"
     units="cm"
     inkscape:zoom="0.35399999"
     inkscape:cx="-355.85035"
     inkscape:cy="176.09755"
     inkscape:window-x="-8"
     inkscape:window-y="-8"
     inkscape:window-maximized="1"
     inkscape:current-layer="g10" /><g
     id="g10"
     inkscape:groupmode="layer"
     inkscape:label="161999-OVGH46-667"
     transform="matrix(1.3333333,0,0,-1.3333333,0,666.66673)"><g
       id="g494"><g
         id="g496"
         clip-path="url(#clipPath500)" /></g><g
       id="g985"
       transform="matrix(1.4891417,0,0,1.0844979,-48.828615,-2.8253449)"><g
         id="g14"><g
           clip-path="url(#clipPath20)"
           id="g16"><g
             transform="translate(149.5237,247.7529)"
             id="g22"><path
               inkscape:connector-curvature="0"
               id="path24"
               style="fill:#fffaef;fill-opacity:1;fill-rule:nonzero;stroke:none"
               d="m 0,0 h -5.103 c -0.528,0 -0.957,0.428 -0.957,0.957 0,0.528 0.429,0.957 0.957,0.957 H 0 C 0.529,1.914 0.957,1.485 0.957,0.957 0.957,0.428 0.529,0 0,0 M 10.206,0 H 5.103 C 4.574,0 4.146,0.428 4.146,0.957 c 0,0.528 0.428,0.957 0.957,0.957 h 5.103 c 0.528,0 0.957,-0.429 0.957,-0.957 C 11.163,0.428 10.734,0 10.206,0 m 10.206,0 h -5.103 c -0.529,0 -0.957,0.428 -0.957,0.957 0,0.528 0.428,0.957 0.957,0.957 h 5.103 c 0.528,0 0.956,-0.429 0.956,-0.957 C 21.368,0.428 20.94,0 20.412,0 m 10.205,0 h -5.103 c -0.528,0 -0.956,0.428 -0.956,0.957 0,0.528 0.428,0.957 0.956,0.957 h 5.103 c 0.529,0 0.957,-0.429 0.957,-0.957 C 31.574,0.428 31.146,0 30.617,0 M 40.823,0 H 35.72 c -0.528,0 -0.957,0.428 -0.957,0.957 0,0.528 0.429,0.957 0.957,0.957 h 5.103 c 0.529,0 0.957,-0.429 0.957,-0.957 C 41.78,0.428 41.352,0 40.823,0 m 10.206,0 h -5.103 c -0.529,0 -0.957,0.428 -0.957,0.957 0,0.528 0.428,0.957 0.957,0.957 h 5.103 c 0.528,0 0.957,-0.429 0.957,-0.957 C 51.986,0.428 51.557,0 51.029,0 m 10.206,0 h -5.103 c -0.529,0 -0.957,0.428 -0.957,0.957 0,0.528 0.428,0.957 0.957,0.957 h 5.103 c 0.528,0 0.956,-0.429 0.956,-0.957 C 62.191,0.428 61.763,0 61.235,0 M 71.44,0 h -5.103 c -0.528,0 -0.956,0.428 -0.956,0.957 0,0.528 0.428,0.957 0.956,0.957 h 5.103 c 0.529,0 0.957,-0.429 0.957,-0.957 C 72.397,0.428 71.969,0 71.44,0 m 10.206,0 h -5.103 c -0.528,0 -0.957,0.428 -0.957,0.957 0,0.528 0.429,0.957 0.957,0.957 h 5.103 c 0.529,0 0.957,-0.429 0.957,-0.957 C 82.603,0.428 82.175,0 81.646,0 m 10.206,0 h -5.103 c -0.529,0 -0.957,0.428 -0.957,0.957 0,0.528 0.428,0.957 0.957,0.957 h 5.103 c 0.528,0 0.957,-0.429 0.957,-0.957 C 92.809,0.428 92.38,0 91.852,0 m 10.206,0 h -5.103 c -0.529,0 -0.957,0.428 -0.957,0.957 0,0.528 0.428,0.957 0.957,0.957 h 5.103 c 0.528,0 0.956,-0.429 0.956,-0.957 C 103.014,0.428 102.586,0 102.058,0 m 10.205,0 h -5.103 c -0.528,0 -0.956,0.428 -0.956,0.957 0,0.528 0.428,0.957 0.956,0.957 h 5.103 c 0.529,0 0.957,-0.429 0.957,-0.957 C 113.22,0.428 112.792,0 112.263,0 m 10.206,0 h -5.103 c -0.528,0 -0.957,0.428 -0.957,0.957 0,0.528 0.429,0.957 0.957,0.957 h 5.103 c 0.528,0 0.957,-0.429 0.957,-0.957 C 123.426,0.428 122.997,0 122.469,0 m 10.206,0 h -5.103 c -0.528,0 -0.957,0.428 -0.957,0.957 0,0.528 0.429,0.957 0.957,0.957 h 5.103 c 0.528,0 0.957,-0.429 0.957,-0.957 C 133.632,0.428 133.203,0 132.675,0 m 10.206,0 h -5.103 c -0.528,0 -0.957,0.428 -0.957,0.957 0,0.528 0.429,0.957 0.957,0.957 h 5.103 c 0.528,0 0.956,-0.429 0.956,-0.957 C 143.837,0.428 143.409,0 142.881,0 m 10.205,0 h -5.102 c -0.529,0 -0.957,0.428 -0.957,0.957 0,0.528 0.428,0.957 0.957,0.957 h 5.102 c 0.529,0 0.957,-0.429 0.957,-0.957 C 154.043,0.428 153.615,0 153.086,0 m 10.206,0 h -5.103 c -0.528,0 -0.957,0.428 -0.957,0.957 0,0.528 0.429,0.957 0.957,0.957 h 5.103 c 0.528,0 0.957,-0.429 0.957,-0.957 C 164.249,0.428 163.82,0 163.292,0 m 9.047,0 h -3.944 c -0.528,0 -0.957,0.428 -0.957,0.957 0,0.528 0.429,0.957 0.957,0.957 h 3.944 c 0.528,0 0.956,-0.429 0.956,-0.957 C 173.295,0.428 172.867,0 172.339,0" /></g><g
             transform="translate(324.9619,247.7529)"
             id="g26"><path
               inkscape:connector-curvature="0"
               id="path28"
               style="fill:#fffaef;fill-opacity:1;fill-rule:nonzero;stroke:none"
               d="m 0,0 h -3.1 c -0.528,0 -0.956,0.428 -0.956,0.957 0,0.528 0.428,0.957 0.956,0.957 H 0 C 0.528,1.914 0.957,1.485 0.957,0.957 0.957,0.428 0.528,0 0,0 M 10.206,0 H 5.103 C 4.575,0 4.146,0.428 4.146,0.957 c 0,0.528 0.429,0.957 0.957,0.957 h 5.103 c 0.528,0 0.957,-0.429 0.957,-0.957 C 11.163,0.428 10.734,0 10.206,0 m 10.205,0 h -5.102 c -0.529,0 -0.957,0.428 -0.957,0.957 0,0.528 0.428,0.957 0.957,0.957 h 5.102 c 0.529,0 0.957,-0.429 0.957,-0.957 C 21.368,0.428 20.94,0 20.411,0 m 10.206,0 h -5.103 c -0.528,0 -0.956,0.428 -0.956,0.957 0,0.528 0.428,0.957 0.956,0.957 h 5.103 c 0.529,0 0.957,-0.429 0.957,-0.957 C 31.574,0.428 31.146,0 30.617,0" /></g><g
             transform="translate(304.494,46.8309)"
             id="g30"><path
               inkscape:connector-curvature="0"
               id="path32"
               style="fill:#4e857a;fill-opacity:1;fill-rule:nonzero;stroke:none"
               d="m 0,0 c 0,-7.398 -21.599,-13.394 -48.243,-13.394 -26.644,0 -48.243,5.996 -48.243,13.394 0,7.398 21.599,13.394 48.243,13.394 C -21.599,13.394 0,7.398 0,0" /></g></g></g><g
         id="g42"><g
           clip-path="url(#clipPath48)"
           id="g44"><g
             transform="translate(267.324,311.9699)"
             id="g50"><path
               inkscape:connector-curvature="0"
               id="path52"
               style="fill:#3c2a34;fill-opacity:1;fill-rule:nonzero;stroke:none"
               d="m 0,0 c 0,-18.599 -15.077,-33.676 -33.676,-33.676 -18.599,0 -33.676,15.077 -33.676,33.676 0,18.599 15.077,33.676 33.676,33.676 C -15.077,33.676 0,18.599 0,0" /></g><g
             transform="translate(256.5765,298.4021)"
             id="g54"><path
               inkscape:connector-curvature="0"
               id="path56"
               style="fill:#3c2a34;fill-opacity:1;fill-rule:nonzero;stroke:none"
               d="m 0,0 -23.518,-3.629 c -11.125,-1.717 -21.632,5.98 -23.349,17.106 l -0.646,4.184 c -1.717,11.125 5.981,21.632 17.106,23.349 l 23.518,3.629 C 4.236,46.356 14.743,38.659 16.46,27.533 l 0.646,-4.184 C 18.823,12.224 11.125,1.717 0,0" /></g><g
             transform="translate(256.1287,249.9729)"
             id="g58"><path
               inkscape:connector-curvature="0"
               id="path60"
               style="fill:#f7b781;fill-opacity:1;fill-rule:nonzero;stroke:none"
               d="m 0,0 -5.008,-0.76 c -13.315,-2.021 -25.863,7.22 -27.883,20.536 l -5.489,36.167 c -2.021,13.315 7.22,25.863 20.536,27.884 l 5.008,0.76 C 0.479,86.607 13.027,77.366 15.047,64.051 L 20.536,27.884 C 22.556,14.568 13.315,2.021 0,0" /></g><g
             transform="translate(283.9214,298.6084)"
             id="g62"><path
               inkscape:connector-curvature="0"
               id="path64"
               style="fill:#c26b58;fill-opacity:1;fill-rule:nonzero;stroke:none"
               d="m 0,0 c 0.482,-3.175 -1.702,-6.14 -4.877,-6.622 -3.175,-0.482 -6.14,1.702 -6.622,4.877 -0.482,3.175 1.702,6.14 4.877,6.622 C -3.447,5.359 -0.482,3.175 0,0" /></g><g
             transform="translate(220.4269,288.1443)"
             id="g66"><path
               inkscape:connector-curvature="0"
               id="path68"
               style="fill:#c26b58;fill-opacity:1;fill-rule:nonzero;stroke:none"
               d="m 0,0 c 0.482,-3.175 -1.702,-6.14 -4.877,-6.622 -3.175,-0.482 -6.14,1.702 -6.622,4.877 -0.482,3.175 1.702,6.14 4.877,6.622 C -3.447,5.359 -0.482,3.175 0,0" /></g><g
             transform="translate(264.4692,333.9142)"
             id="g70"><path
               inkscape:connector-curvature="0"
               id="path72"
               style="fill:#3c2a34;fill-opacity:1;fill-rule:nonzero;stroke:none"
               d="m 0,0 c 0.916,-6.039 -8.719,-12.509 -21.521,-14.452 -12.801,-1.943 -23.922,1.378 -24.839,7.417 -0.916,6.039 8.719,12.509 21.521,14.452 C -12.037,9.36 -0.916,6.039 0,0" /></g><g
             transform="translate(250.807,285.5711)"
             id="g74"><path
               inkscape:connector-curvature="0"
               id="path76"
               style="fill:#ad604e;fill-opacity:1;fill-rule:nonzero;stroke:none"
               d="M 0,0 -0.005,1.276 8.808,1.309 -4.823,13.553 -3.971,14.502 12.124,0.046 Z" /></g><g
             transform="translate(239.4537,300.9951)"
             id="g78"><path
               inkscape:connector-curvature="0"
               id="path80"
               style="fill:#342a28;fill-opacity:1;fill-rule:nonzero;stroke:none"
               d="m 0,0 c 0.342,-2.256 -0.674,-4.281 -2.271,-4.523 -1.596,-0.243 -3.168,1.39 -3.51,3.646 -0.343,2.256 0.674,4.281 2.27,4.523 C -1.914,3.888 -0.342,2.256 0,0" /></g><g
             transform="translate(262.5064,304.0447)"
             id="g82"><path
               inkscape:connector-curvature="0"
               id="path84"
               style="fill:#342a28;fill-opacity:1;fill-rule:nonzero;stroke:none"
               d="m 0,0 c 0.342,-2.256 -0.674,-4.281 -2.271,-4.523 -1.596,-0.243 -3.168,1.39 -3.51,3.646 -0.343,2.256 0.674,4.281 2.27,4.523 C -1.914,3.888 -0.342,2.256 0,0" /></g><g
             transform="translate(251.8992,123.3736)"
             id="g86"><path
               inkscape:connector-curvature="0"
               id="path88"
               style="fill:#3c2a34;fill-opacity:1;fill-rule:nonzero;stroke:none"
               d="m 0,0 -4.628,-75.588 h -5.631 L -23.673,3.103 Z" /></g><g
             transform="translate(247.271,47.7853)"
             id="g90"><path
               inkscape:connector-curvature="0"
               id="path92"
               style="fill:#2a211f;fill-opacity:1;fill-rule:nonzero;stroke:none"
               d="m 0,0 v -2.017 h -14.336 c 0,0 1.883,2.661 14.336,2.017" /></g><g
             transform="translate(260.9928,123.3736)"
             id="g94"><path
               inkscape:connector-curvature="0"
               id="path96"
               style="fill:#3c2a34;fill-opacity:1;fill-rule:nonzero;stroke:none"
               d="m 0,0 4.628,-75.588 h 5.631 L 23.673,3.103 Z" /></g><g
             transform="translate(265.621,47.7853)"
             id="g98"><path
               inkscape:connector-curvature="0"
               id="path100"
               style="fill:#2a211f;fill-opacity:1;fill-rule:nonzero;stroke:none"
               d="M 0,0 V -2.017 H 14.336 C 14.336,-2.017 12.453,0.644 0,0" /></g><g
             transform="translate(236.7159,306.9041)"
             id="g102"><path
               inkscape:connector-curvature="0"
               id="path104"
               style="fill:#3c2a34;fill-opacity:1;fill-rule:nonzero;stroke:none"
               d="M 0,0 C -0.302,0 -0.608,-0.023 -0.909,-0.069 L -7.6,-1.084 c -3.314,-0.503 -5.601,-3.608 -5.098,-6.923 l 0.549,-3.62 c 0.448,-2.946 3.033,-5.167 6.013,-5.167 0.303,0 0.609,0.023 0.91,0.069 l 6.69,1.015 c 3.314,0.503 5.601,3.608 5.098,6.922 L 6.013,-5.167 C 5.566,-2.221 2.981,0 0,0 m -6.136,-18.708 c -3.918,0 -7.316,2.921 -7.904,6.794 l -0.55,3.62 c -0.661,4.358 2.346,8.44 6.703,9.102 l 6.69,1.015 c 0.396,0.06 0.799,0.091 1.197,0.091 3.918,0 7.317,-2.921 7.905,-6.794 l 0.549,-3.621 c 0.661,-4.357 -2.345,-8.439 -6.703,-9.101 l -6.69,-1.015 c -0.396,-0.06 -0.799,-0.091 -1.197,-0.091" /></g><g
             transform="translate(266.3184,310.7042)"
             id="g106"><path
               inkscape:connector-curvature="0"
               id="path108"
               style="fill:#3c2a34;fill-opacity:1;fill-rule:nonzero;stroke:none"
               d="M 0,0 C -0.303,0 -0.609,-0.023 -0.91,-0.069 L -7.6,-1.084 c -1.597,-0.243 -3.009,-1.099 -3.976,-2.411 -0.966,-1.311 -1.364,-2.914 -1.121,-4.512 l 0.549,-3.62 c 0.447,-2.946 3.032,-5.167 6.012,-5.167 0.303,0 0.609,0.023 0.91,0.069 l 6.69,1.015 c 3.314,0.503 5.601,3.608 5.098,6.922 l -0.55,3.621 C 5.566,-2.221 2.981,0 0,0 m -6.136,-18.708 c -3.918,0 -7.316,2.921 -7.904,6.794 l -0.55,3.62 c -0.319,2.104 0.205,4.211 1.473,5.934 1.27,1.724 3.127,2.849 5.23,3.168 l 6.69,1.015 c 0.396,0.06 0.798,0.091 1.197,0.091 3.919,0 7.317,-2.921 7.905,-6.794 l 0.549,-3.621 c 0.661,-4.356 -2.346,-8.439 -6.702,-9.101 l -6.691,-1.015 c -0.396,-0.06 -0.798,-0.091 -1.197,-0.091" /></g><g
             transform="translate(266.9852,346.5578)"
             id="g110"><path
               inkscape:connector-curvature="0"
               id="path112"
               style="fill:#3c2a34;fill-opacity:1;fill-rule:nonzero;stroke:none"
               d="m 0,0 c 1.867,-12.301 -6.475,-23.768 -18.632,-25.613 -12.157,-1.845 -23.526,6.631 -25.392,18.932 -1.867,12.301 6.475,23.769 18.632,25.613 C -13.235,20.777 -1.867,12.301 0,0" /></g><g
             transform="translate(217.9389,219.49)"
             id="g114"><path
               inkscape:connector-curvature="0"
               id="path116"
               style="fill:#f5f1e3;fill-opacity:1;fill-rule:nonzero;stroke:none"
               d="m 0,0 c 0,0 -4.901,33.435 63.666,14.948 l 9.5,-111.754 -73.958,-2.574 z" /></g><g
             transform="translate(281.605,234.4377)"
             id="g118"><path
               inkscape:connector-curvature="0"
               id="path120"
               style="fill:#f5f1e3;fill-opacity:1;fill-rule:nonzero;stroke:none"
               d="m 0,0 33.603,-30.624 -2.862,70.412 h 10.524 l 2.911,-92.064 -50.092,26.354 c 0,0 -7.603,20.739 5.916,25.922" /></g><g
             transform="translate(259.0626,251.3034)"
             id="g122"><path
               inkscape:connector-curvature="0"
               id="path124"
               style="fill:#f7b781;fill-opacity:1;fill-rule:nonzero;stroke:none"
               d="m 0,0 6.163,-24.602 c 0,0 -3.92,-4.27 -21.5,-3.21 l -2.352,25.128 c 0,0 4.682,13.41 17.689,2.684" /></g><g
             transform="translate(237.2802,223.322)"
             id="g126"><path
               inkscape:connector-curvature="0"
               id="path128"
               style="fill:#f5f1e3;fill-opacity:1;fill-rule:nonzero;stroke:none"
               d="m 0,0 3.023,18.118 c 0,0 18.743,-18.876 18.743,-16.217 0,2.658 2.766,18.344 2.766,18.344 L 35.075,-1.854 Z" /></g><g
             transform="translate(253.6815,224.9105)"
             id="g130"><path
               inkscape:connector-curvature="0"
               id="path132"
               style="fill:#3c2a34;fill-opacity:1;fill-rule:nonzero;stroke:none"
               d="M 0,0 10.29,1.858 V -8.783 l 7.437,-58.721 -7.586,-10.899 -7.967,10.899 3.736,56.488 z" /></g><g
             transform="translate(217.2949,136.6285)"
             id="g134"><path
               inkscape:connector-curvature="0"
               id="path136"
               style="fill:#3c2a34;fill-opacity:1;fill-rule:nonzero;stroke:none"
               d="M 0,0 72.482,1.68 73.81,-16.518 H -0.148 Z" /></g><g
             transform="translate(238.0996,282.3153)"
             id="g138"><path
               inkscape:connector-curvature="0"
               id="path140"
               style="fill:#f5f1e3;fill-opacity:1;fill-rule:nonzero;stroke:none"
               d="M 0,0 C 17.388,-26.153 17.756,0 17.756,0 17.756,0 10.691,-7.607 0,0" /></g><g
             transform="translate(303.3355,282.3169)"
             id="g142"><path
               inkscape:connector-curvature="0"
               id="path144"
               style="fill:#f7b781;fill-opacity:1;fill-rule:nonzero;stroke:none"
               d="m 0,0 -4.287,28.144 c 0,0 4.271,-0.344 9.241,-20.651 0,0 4.948,7.229 11.475,2.187 2.244,-1.734 18.564,-17.771 -4.176,-22.905 H 8.432 Z" /></g><g
             transform="translate(311.1246,271.8678)"
             id="g146"><path
               inkscape:connector-curvature="0"
               id="path148"
               style="fill:#ad604e;fill-opacity:1;fill-rule:nonzero;stroke:none"
               d="M 0,0 -7.857,9.757 1.781,21.814 2.104,21.731 C 3.434,21.391 4.422,20.474 4.748,19.276 5.356,17.037 3.811,13.978 0.155,10.174 2.535,9.833 7.901,8.357 8.852,1.977 L 7.828,1.825 C 6.735,9.157 -0.667,9.241 -0.982,9.241 H -2.24 l 0.894,0.886 c 5.146,5.096 5.401,7.75 5.094,8.878 -0.266,0.98 -1.055,1.429 -1.588,1.626 L -6.53,9.76 0.807,0.649 Z" /></g><g
             transform="translate(220.1476,229.3368)"
             id="g150"><path
               inkscape:connector-curvature="0"
               id="path152"
               style="fill:#f5f1e3;fill-opacity:1;fill-rule:nonzero;stroke:none"
               d="m 0,0 -41.554,-52.675 33.033,-46.11 4.738,13.456 -19.142,32.524 23.271,26.321 z" /></g><path
             inkscape:connector-curvature="0"
             id="path154"
             style="fill:#3c2a34;fill-opacity:1;fill-rule:nonzero;stroke:none"
             d="m 222.992,295.197 h -4.997 v 1.914 h 4.997 z" /><g
             transform="translate(245.0246,297.7358)"
             id="g156"><path
               inkscape:connector-curvature="0"
               id="path158"
               style="fill:#3c2a34;fill-opacity:1;fill-rule:nonzero;stroke:none"
               d="M 0,0 -1.601,1.048 C -0.325,2.996 1.237,4.075 3.042,4.256 6.169,4.568 8.771,1.981 8.88,1.87 L 7.519,0.525 8.2,1.198 7.521,0.524 C 7.5,0.544 5.44,2.581 3.224,2.351 2.026,2.228 0.941,1.437 0,0" /></g><g
             transform="translate(237.1806,280.0847)"
             id="g160"><path
               inkscape:connector-curvature="0"
               id="path162"
               style="fill:#ad604e;fill-opacity:1;fill-rule:nonzero;stroke:none"
               d="m 0,0 -1.235,0.318 c 0.657,2.557 1.609,4.071 2.829,4.5 C 2.437,5.115 3.192,4.799 3.505,4.565 L 2.75,3.537 C 2.716,3.56 2.407,3.759 1.999,3.608 1.556,3.442 0.708,2.753 0,0" /></g><g
             transform="translate(250.9481,262.5482)"
             id="g164"><path
               inkscape:connector-curvature="0"
               id="path166"
               style="fill:#ad604e;fill-opacity:1;fill-rule:nonzero;stroke:none"
               d="m 0,0 c -2.526,0 -4.403,2.538 -4.486,2.652 l 1.031,0.752 C -3.438,3.38 -1.691,1.055 0.29,1.293 1.754,1.466 3.148,3.033 4.32,5.826 L 5.496,5.332 C 4.114,2.041 2.411,0.255 0.434,0.025 0.287,0.008 0.143,0 0,0" /></g><g
             transform="translate(229.4054,310.0888)"
             id="g168"><path
               inkscape:connector-curvature="0"
               id="path170"
               style="fill:#3c2a34;fill-opacity:1;fill-rule:nonzero;stroke:none"
               d="m 0,0 -1.755,0.762 c 1.254,2.887 2.865,4.505 4.79,4.81 2.666,0.419 4.752,-1.905 4.84,-2.004 L 6.44,2.301 7.158,2.935 6.442,2.299 C 6.428,2.315 4.947,3.943 3.326,3.68 2.11,3.484 0.96,2.211 0,0" /></g><g
             transform="translate(262.2521,314.4407)"
             id="g172"><path
               inkscape:connector-curvature="0"
               id="path174"
               style="fill:#3c2a34;fill-opacity:1;fill-rule:nonzero;stroke:none"
               d="M 0,0 C -1.099,2.146 -2.327,3.343 -3.552,3.462 -5.189,3.62 -6.562,1.904 -6.575,1.886 l -1.51,1.176 c 0.081,0.105 2.018,2.561 4.703,2.306 1.94,-0.181 3.651,-1.694 5.085,-4.496 z" /></g><g
             transform="translate(254.4019,274.226)"
             id="g176"><path
               inkscape:connector-curvature="0"
               id="path178"
               style="fill:#b32d2f;fill-opacity:1;fill-rule:nonzero;stroke:none"
               d="m 0,0 c 0,0 -4.316,5.691 -10.098,0.115 0,0 6.843,-7.836 10.098,-0.115" /></g><g
             transform="translate(216.3649,144.0083)"
             id="g180"><path
               inkscape:connector-curvature="0"
               id="path182"
               style="fill:#f7b781;fill-opacity:1;fill-rule:nonzero;stroke:none"
               d="m 0,0 0.782,-23.898 -17.854,0.631 -4.146,10.484 c 0,0 4.784,2.431 6.697,-6.771 h 8.611 c 0,0 -6.359,13.865 5.91,19.554" /></g><g
             transform="translate(217.9948,202.8528)"
             id="g184"><path
               inkscape:connector-curvature="0"
               id="path186"
               style="fill:#dcd8c6;fill-opacity:1;fill-rule:nonzero;stroke:none"
               d="M 0,0 C 0,0 -0.187,-67.511 71.298,-58.844 L 71.782,-64.545 -0.7,-66.224 Z" /></g><g
             transform="translate(254.2841,141.4056)"
             id="g188"><path
               inkscape:connector-curvature="0"
               id="path190"
               style="fill:#ef9e20;fill-opacity:1;fill-rule:nonzero;stroke:none"
               d="M 0,0 H 16.522 V -12.126 L 0.04,-12.196 Z" /></g><g
             transform="translate(256.5567,139.1731)"
             id="g192"><path
               inkscape:connector-curvature="0"
               id="path194"
               style="fill:#3c2a34;fill-opacity:1;fill-rule:nonzero;stroke:none"
               d="M 0,0 H 11.977 V -7.121 L 0.029,-7.162 Z" /></g><g
             transform="translate(351.9366,393.7867)"
             id="g196"><path
               inkscape:connector-curvature="0"
               id="path198"
               style="fill:#fffaef;fill-opacity:1;fill-rule:nonzero;stroke:none"
               d="m 0,0 h -5.103 c -0.528,0 -0.957,0.428 -0.957,0.957 0,0.528 0.429,0.957 0.957,0.957 H 0 C 0.528,1.914 0.957,1.485 0.957,0.957 0.957,0.428 0.528,0 0,0 M 10.206,0 H 5.103 C 4.575,0 4.146,0.428 4.146,0.957 c 0,0.528 0.429,0.957 0.957,0.957 h 5.103 c 0.528,0 0.957,-0.429 0.957,-0.957 C 11.163,0.428 10.734,0 10.206,0 m 10.206,0 h -5.103 c -0.529,0 -0.957,0.428 -0.957,0.957 0,0.528 0.428,0.957 0.957,0.957 h 5.103 c 0.528,0 0.956,-0.429 0.956,-0.957 C 21.368,0.428 20.94,0 20.412,0 m 10.205,0 h -5.103 c -0.528,0 -0.956,0.428 -0.956,0.957 0,0.528 0.428,0.957 0.956,0.957 h 5.103 c 0.529,0 0.957,-0.429 0.957,-0.957 C 31.574,0.428 31.146,0 30.617,0 m -45.536,-0.389 c -0.529,0 -0.957,0.428 -0.957,0.956 v 0.39 c 0,0.528 0.428,0.957 0.957,0.957 h 4.713 c 0.528,0 0.957,-0.429 0.957,-0.957 C -9.249,0.428 -9.678,0 -10.206,0 h -3.943 c -0.174,-0.236 -0.454,-0.389 -0.77,-0.389 m 0,-10.206 c -0.529,0 -0.957,0.428 -0.957,0.957 v 5.103 c 0,0.528 0.428,0.956 0.957,0.956 0.528,0 0.956,-0.428 0.956,-0.956 v -5.103 c 0,-0.529 -0.428,-0.957 -0.956,-0.957 m 0,-10.206 c -0.529,0 -0.957,0.428 -0.957,0.957 v 5.103 c 0,0.528 0.428,0.957 0.957,0.957 0.528,0 0.956,-0.429 0.956,-0.957 v -5.103 c 0,-0.529 -0.428,-0.957 -0.956,-0.957 m 0,-10.206 c -0.529,0 -0.957,0.429 -0.957,0.957 v 5.103 c 0,0.529 0.428,0.957 0.957,0.957 0.528,0 0.956,-0.428 0.956,-0.957 v -5.103 c 0,-0.528 -0.428,-0.957 -0.956,-0.957 m 0,-10.205 c -0.529,0 -0.957,0.428 -0.957,0.956 v 5.103 c 0,0.529 0.428,0.957 0.957,0.957 0.528,0 0.956,-0.428 0.956,-0.957 v -5.103 c 0,-0.528 -0.428,-0.956 -0.956,-0.956 m 0,-10.206 c -0.529,0 -0.957,0.428 -0.957,0.957 v 5.103 c 0,0.528 0.428,0.956 0.957,0.956 0.528,0 0.956,-0.428 0.956,-0.956 v -5.103 c 0,-0.529 -0.428,-0.957 -0.956,-0.957 m 0,-10.206 c -0.529,0 -0.957,0.428 -0.957,0.957 v 5.103 c 0,0.528 0.428,0.957 0.957,0.957 0.528,0 0.956,-0.429 0.956,-0.957 v -5.103 c 0,-0.529 -0.428,-0.957 -0.956,-0.957 m 0,-10.206 c -0.529,0 -0.957,0.429 -0.957,0.957 v 5.103 c 0,0.529 0.428,0.957 0.957,0.957 0.528,0 0.956,-0.428 0.956,-0.957 v -5.103 c 0,-0.528 -0.428,-0.957 -0.956,-0.957 m 0,-10.205 c -0.529,0 -0.957,0.428 -0.957,0.956 v 5.103 c 0,0.529 0.428,0.957 0.957,0.957 0.528,0 0.956,-0.428 0.956,-0.957 v -5.103 c 0,-0.528 -0.428,-0.956 -0.956,-0.956 m 0,-10.206 c -0.529,0 -0.957,0.428 -0.957,0.957 v 5.103 c 0,0.528 0.428,0.956 0.957,0.956 0.528,0 0.956,-0.428 0.956,-0.956 v -5.103 c 0,-0.529 -0.428,-0.957 -0.956,-0.957 m 0,-10.206 c -0.529,0 -0.957,0.428 -0.957,0.957 v 5.103 c 0,0.528 0.428,0.957 0.957,0.957 0.528,0 0.956,-0.429 0.956,-0.957 v -5.103 c 0,-0.529 -0.428,-0.957 -0.956,-0.957 m 0,-10.206 c -0.529,0 -0.957,0.429 -0.957,0.957 v 5.103 c 0,0.529 0.428,0.957 0.957,0.957 0.528,0 0.956,-0.428 0.956,-0.957 v -5.103 c 0,-0.528 -0.428,-0.957 -0.956,-0.957 m 0,-10.205 c -0.529,0 -0.957,0.428 -0.957,0.956 v 5.103 c 0,0.529 0.428,0.957 0.957,0.957 0.528,0 0.956,-0.428 0.956,-0.957 v -5.103 c 0,-0.528 -0.428,-0.956 -0.956,-0.956 m 0,-10.206 c -0.529,0 -0.957,0.428 -0.957,0.957 v 5.102 c 0,0.529 0.428,0.957 0.957,0.957 0.528,0 0.956,-0.428 0.956,-0.957 v -5.102 c 0,-0.529 -0.428,-0.957 -0.956,-0.957 m 0,-10.206 c -0.529,0 -0.957,0.428 -0.957,0.957 v 5.103 c 0,0.528 0.428,0.956 0.957,0.956 0.528,0 0.956,-0.428 0.956,-0.956 v -5.103 c 0,-0.529 -0.428,-0.957 -0.956,-0.957 m 0,-10.206 c -0.529,0 -0.957,0.429 -0.957,0.957 v 5.103 c 0,0.528 0.428,0.957 0.957,0.957 0.528,0 0.956,-0.429 0.956,-0.957 v -5.103 c 0,-0.528 -0.428,-0.957 -0.956,-0.957 m 0,-10.205 c -0.529,0 -0.957,0.428 -0.957,0.956 v 5.103 c 0,0.529 0.428,0.957 0.957,0.957 0.528,0 0.956,-0.428 0.956,-0.957 v -5.103 c 0,-0.528 -0.428,-0.956 -0.956,-0.956 m 0,-10.206 c -0.529,0 -0.957,0.428 -0.957,0.957 v 5.102 c 0,0.529 0.428,0.957 0.957,0.957 0.528,0 0.956,-0.428 0.956,-0.957 v -5.102 c 0,-0.529 -0.428,-0.957 -0.956,-0.957 m 0,-10.206 c -0.529,0 -0.957,0.428 -0.957,0.957 v 5.103 c 0,0.528 0.428,0.956 0.957,0.956 0.528,0 0.956,-0.428 0.956,-0.956 v -5.103 c 0,-0.529 -0.428,-0.957 -0.956,-0.957 m 0,-10.206 c -0.529,0 -0.957,0.428 -0.957,0.957 v 5.103 c 0,0.528 0.428,0.957 0.957,0.957 0.528,0 0.956,-0.429 0.956,-0.957 v -5.103 c 0,-0.529 -0.428,-0.957 -0.956,-0.957 m 0,-10.206 c -0.529,0 -0.957,0.429 -0.957,0.957 v 5.103 c 0,0.529 0.428,0.957 0.957,0.957 0.528,0 0.956,-0.428 0.956,-0.957 v -5.103 c 0,-0.528 -0.428,-0.957 -0.956,-0.957 m 0,-10.205 c -0.529,0 -0.957,0.428 -0.957,0.957 v 5.102 c 0,0.529 0.428,0.957 0.957,0.957 0.528,0 0.956,-0.428 0.956,-0.957 v -5.102 c 0,-0.529 -0.428,-0.957 -0.956,-0.957 m 0,-10.206 c -0.529,0 -0.957,0.428 -0.957,0.957 v 5.103 c 0,0.528 0.428,0.956 0.957,0.956 0.528,0 0.956,-0.428 0.956,-0.956 v -5.103 c 0,-0.529 -0.428,-0.957 -0.956,-0.957 m 0,-10.206 c -0.529,0 -0.957,0.428 -0.957,0.957 v 5.103 c 0,0.528 0.428,0.957 0.957,0.957 0.528,0 0.956,-0.429 0.956,-0.957 v -5.103 c 0,-0.529 -0.428,-0.957 -0.956,-0.957 m 0,-10.206 c -0.529,0 -0.957,0.429 -0.957,0.957 v 5.103 c 0,0.529 0.428,0.957 0.957,0.957 0.528,0 0.956,-0.428 0.956,-0.957 v -5.103 c 0,-0.528 -0.428,-0.957 -0.956,-0.957 m 0,-10.205 c -0.529,0 -0.957,0.428 -0.957,0.956 v 5.103 c 0,0.529 0.428,0.957 0.957,0.957 0.528,0 0.956,-0.428 0.956,-0.957 v -5.103 c 0,-0.528 -0.428,-0.956 -0.956,-0.956 m 0,-10.206 c -0.529,0 -0.957,0.428 -0.957,0.957 v 5.103 c 0,0.528 0.428,0.956 0.957,0.956 0.528,0 0.956,-0.428 0.956,-0.956 v -5.103 c 0,-0.529 -0.428,-0.957 -0.956,-0.957 m 0,-10.206 c -0.529,0 -0.957,0.428 -0.957,0.957 v 5.103 c 0,0.528 0.428,0.957 0.957,0.957 0.528,0 0.956,-0.429 0.956,-0.957 v -5.103 c 0,-0.529 -0.428,-0.957 -0.956,-0.957 m 0,-10.206 c -0.529,0 -0.957,0.429 -0.957,0.957 v 5.103 c 0,0.529 0.428,0.957 0.957,0.957 0.528,0 0.956,-0.428 0.956,-0.957 v -5.103 c 0,-0.528 -0.428,-0.957 -0.956,-0.957 m 0.966,-9.24 h -0.966 c -0.529,0 -0.957,0.429 -0.957,0.957 v 4.137 c 0,0.529 0.428,0.957 0.957,0.957 0.528,0 0.956,-0.428 0.956,-0.957 l 0.01,-3.18 c 0.528,0 0.957,-0.428 0.957,-0.957 0,-0.528 -0.429,-0.957 -0.957,-0.957 m 10.206,0 H -8.85 c -0.529,0 -0.957,0.429 -0.957,0.957 0,0.529 0.428,0.957 0.957,0.957 h 5.103 c 0.528,0 0.956,-0.428 0.956,-0.957 0,-0.528 -0.428,-0.957 -0.956,-0.957 m 10.205,0 H 1.355 c -0.528,0 -0.956,0.429 -0.956,0.957 0,0.529 0.428,0.957 0.956,0.957 h 5.103 c 0.529,0 0.957,-0.428 0.957,-0.957 0,-0.528 -0.428,-0.957 -0.957,-0.957 m 10.206,0 h -5.103 c -0.528,0 -0.957,0.429 -0.957,0.957 0,0.529 0.429,0.957 0.957,0.957 h 5.103 c 0.528,0 0.957,-0.428 0.957,-0.957 0,-0.528 -0.429,-0.957 -0.957,-0.957 m 10.206,0 h -5.103 c -0.528,0 -0.957,0.429 -0.957,0.957 0,0.529 0.429,0.957 0.957,0.957 h 5.103 c 0.528,0 0.957,-0.428 0.957,-0.957 0,-0.528 -0.429,-0.957 -0.957,-0.957 m 10.206,0 h -5.103 c -0.528,0 -0.957,0.429 -0.957,0.957 0,0.529 0.429,0.957 0.957,0.957 h 5.103 c 0.528,0 0.956,-0.428 0.956,-0.957 0,-0.528 -0.428,-0.957 -0.956,-0.957 m 10.205,0 h -5.103 c -0.528,0 -0.956,0.429 -0.956,0.957 0,0.529 0.428,0.957 0.956,0.957 h 5.103 c 0.529,0 0.957,-0.428 0.957,-0.957 0,-0.528 -0.428,-0.957 -0.957,-0.957" /></g><g
             transform="translate(122.5481,393.7867)"
             id="g200"><path
               inkscape:connector-curvature="0"
               id="path202"
               style="fill:#fffaef;fill-opacity:1;fill-rule:nonzero;stroke:none"
               d="m 0,0 h -5.103 c -0.528,0 -0.957,0.428 -0.957,0.957 0,0.528 0.429,0.957 0.957,0.957 H 0 C 0.529,1.914 0.957,1.485 0.957,0.957 0.957,0.428 0.529,0 0,0 M 10.206,0 H 5.103 C 4.574,0 4.146,0.428 4.146,0.957 c 0,0.528 0.428,0.957 0.957,0.957 h 5.103 c 0.528,0 0.957,-0.429 0.957,-0.957 C 11.163,0.428 10.734,0 10.206,0 m 10.206,0 h -5.103 c -0.529,0 -0.957,0.428 -0.957,0.957 0,0.528 0.428,0.957 0.957,0.957 h 5.103 c 0.528,0 0.956,-0.429 0.956,-0.957 C 21.368,0.428 20.94,0 20.412,0 m 10.205,0 h -5.103 c -0.528,0 -0.956,0.428 -0.956,0.957 0,0.528 0.428,0.957 0.956,0.957 h 5.103 c 0.529,0 0.957,-0.429 0.957,-0.957 C 31.574,0.428 31.146,0 30.617,0 m 9.817,-0.389 c -0.316,0 -0.596,0.153 -0.77,0.389 H 35.72 c -0.528,0 -0.957,0.428 -0.957,0.957 0,0.528 0.429,0.957 0.957,0.957 h 4.714 c 0.529,0 0.957,-0.429 0.957,-0.957 V 0.568 c 0,-0.529 -0.428,-0.957 -0.957,-0.957 m 0,-10.206 c -0.529,0 -0.957,0.428 -0.957,0.957 v 5.103 c 0,0.528 0.428,0.957 0.957,0.957 0.529,0 0.957,-0.429 0.957,-0.957 v -5.103 c 0,-0.529 -0.428,-0.957 -0.957,-0.957 m 0,-10.206 c -0.529,0 -0.957,0.429 -0.957,0.957 v 5.103 c 0,0.529 0.428,0.957 0.957,0.957 0.529,0 0.957,-0.428 0.957,-0.957 v -5.103 c 0,-0.528 -0.428,-0.957 -0.957,-0.957 m 0,-10.205 c -0.529,0 -0.957,0.428 -0.957,0.957 v 5.102 c 0,0.529 0.428,0.957 0.957,0.957 0.529,0 0.957,-0.428 0.957,-0.957 v -5.102 c 0,-0.529 -0.428,-0.957 -0.957,-0.957 m 0,-10.206 c -0.529,0 -0.957,0.428 -0.957,0.957 v 5.103 c 0,0.528 0.428,0.956 0.957,0.956 0.529,0 0.957,-0.428 0.957,-0.956 v -5.103 c 0,-0.529 -0.428,-0.957 -0.957,-0.957 m 0,-10.206 c -0.529,0 -0.957,0.428 -0.957,0.957 v 5.103 c 0,0.528 0.428,0.957 0.957,0.957 0.529,0 0.957,-0.429 0.957,-0.957 v -5.103 c 0,-0.529 -0.428,-0.957 -0.957,-0.957 m 0,-10.206 c -0.529,0 -0.957,0.429 -0.957,0.957 v 5.103 c 0,0.529 0.428,0.957 0.957,0.957 0.529,0 0.957,-0.428 0.957,-0.957 v -5.103 c 0,-0.528 -0.428,-0.957 -0.957,-0.957 m 0,-10.205 c -0.529,0 -0.957,0.428 -0.957,0.956 v 5.103 c 0,0.529 0.428,0.957 0.957,0.957 0.529,0 0.957,-0.428 0.957,-0.957 v -5.103 c 0,-0.528 -0.428,-0.956 -0.957,-0.956 m 0,-10.206 c -0.529,0 -0.957,0.428 -0.957,0.957 v 5.103 c 0,0.528 0.428,0.956 0.957,0.956 0.529,0 0.957,-0.428 0.957,-0.956 v -5.103 c 0,-0.529 -0.428,-0.957 -0.957,-0.957 m 0,-10.206 c -0.529,0 -0.957,0.428 -0.957,0.957 v 5.103 c 0,0.528 0.428,0.957 0.957,0.957 0.529,0 0.957,-0.429 0.957,-0.957 v -5.103 c 0,-0.529 -0.428,-0.957 -0.957,-0.957 m 0,-10.206 c -0.529,0 -0.957,0.429 -0.957,0.957 v 5.103 c 0,0.529 0.428,0.957 0.957,0.957 0.529,0 0.957,-0.428 0.957,-0.957 v -5.103 c 0,-0.528 -0.428,-0.957 -0.957,-0.957 m 0,-10.205 c -0.529,0 -0.957,0.428 -0.957,0.956 v 5.103 c 0,0.529 0.428,0.957 0.957,0.957 0.529,0 0.957,-0.428 0.957,-0.957 v -5.103 c 0,-0.528 -0.428,-0.956 -0.957,-0.956 m 0,-10.206 c -0.529,0 -0.957,0.428 -0.957,0.957 v 5.103 c 0,0.528 0.428,0.956 0.957,0.956 0.529,0 0.957,-0.428 0.957,-0.956 v -5.103 c 0,-0.529 -0.428,-0.957 -0.957,-0.957 m 0,-10.206 c -0.529,0 -0.957,0.428 -0.957,0.957 v 5.103 c 0,0.528 0.428,0.957 0.957,0.957 0.529,0 0.957,-0.429 0.957,-0.957 v -5.103 c 0,-0.529 -0.428,-0.957 -0.957,-0.957 m 0,-10.206 c -0.529,0 -0.957,0.429 -0.957,0.957 v 5.103 c 0,0.529 0.428,0.957 0.957,0.957 0.529,0 0.957,-0.428 0.957,-0.957 v -5.103 c 0,-0.528 -0.428,-0.957 -0.957,-0.957 m 0,-10.205 c -0.529,0 -0.957,0.428 -0.957,0.956 v 5.103 c 0,0.529 0.428,0.957 0.957,0.957 0.529,0 0.957,-0.428 0.957,-0.957 v -5.103 c 0,-0.528 -0.428,-0.956 -0.957,-0.956 m 0,-10.206 c -0.529,0 -0.957,0.428 -0.957,0.957 v 5.102 c 0,0.529 0.428,0.957 0.957,0.957 0.529,0 0.957,-0.428 0.957,-0.957 v -5.102 c 0,-0.529 -0.428,-0.957 -0.957,-0.957 m 0,-10.206 c -0.529,0 -0.957,0.428 -0.957,0.957 v 5.103 c 0,0.528 0.428,0.957 0.957,0.957 0.529,0 0.957,-0.429 0.957,-0.957 v -5.103 c 0,-0.529 -0.428,-0.957 -0.957,-0.957 m 0,-10.206 c -0.529,0 -0.957,0.429 -0.957,0.957 v 5.103 c 0,0.529 0.428,0.957 0.957,0.957 0.529,0 0.957,-0.428 0.957,-0.957 v -5.103 c 0,-0.528 -0.428,-0.957 -0.957,-0.957 m 0,-10.205 c -0.529,0 -0.957,0.428 -0.957,0.956 v 5.103 c 0,0.529 0.428,0.957 0.957,0.957 0.529,0 0.957,-0.428 0.957,-0.957 v -5.103 c 0,-0.528 -0.428,-0.956 -0.957,-0.956 m 0,-10.206 c -0.529,0 -0.957,0.428 -0.957,0.957 v 5.102 c 0,0.529 0.428,0.957 0.957,0.957 0.529,0 0.957,-0.428 0.957,-0.957 v -5.102 c 0,-0.529 -0.428,-0.957 -0.957,-0.957 m 0,-10.206 c -0.529,0 -0.957,0.428 -0.957,0.957 v 5.103 c 0,0.528 0.428,0.956 0.957,0.956 0.529,0 0.957,-0.428 0.957,-0.956 v -5.103 c 0,-0.529 -0.428,-0.957 -0.957,-0.957 m 0,-10.206 c -0.529,0 -0.957,0.429 -0.957,0.957 v 5.103 c 0,0.528 0.428,0.957 0.957,0.957 0.529,0 0.957,-0.429 0.957,-0.957 v -5.103 c 0,-0.528 -0.428,-0.957 -0.957,-0.957 m 0,-10.205 c -0.529,0 -0.957,0.428 -0.957,0.956 v 5.103 c 0,0.529 0.428,0.957 0.957,0.957 0.529,0 0.957,-0.428 0.957,-0.957 v -5.103 c 0,-0.528 -0.428,-0.956 -0.957,-0.956 m 0,-10.206 c -0.529,0 -0.957,0.428 -0.957,0.957 v 5.102 c 0,0.529 0.428,0.957 0.957,0.957 0.529,0 0.957,-0.428 0.957,-0.957 v -5.102 c 0,-0.529 -0.428,-0.957 -0.957,-0.957 m 0,-10.206 c -0.529,0 -0.957,0.428 -0.957,0.957 v 5.103 c 0,0.528 0.428,0.956 0.957,0.956 0.529,0 0.957,-0.428 0.957,-0.956 v -5.103 c 0,-0.529 -0.428,-0.957 -0.957,-0.957 m 0,-10.206 c -0.529,0 -0.957,0.428 -0.957,0.957 v 5.103 c 0,0.528 0.428,0.957 0.957,0.957 0.529,0 0.957,-0.429 0.957,-0.957 v -5.103 c 0,-0.529 -0.428,-0.957 -0.957,-0.957 m 0,-10.206 c -0.529,0 -0.957,0.429 -0.957,0.957 v 5.103 c 0,0.529 0.428,0.957 0.957,0.957 0.529,0 0.957,-0.428 0.957,-0.957 v -5.103 c 0,-0.528 -0.428,-0.957 -0.957,-0.957 m 0,-10.205 c -0.529,0 -0.957,0.428 -0.957,0.957 v 5.102 c 0,0.529 0.428,0.957 0.957,0.957 0.529,0 0.957,-0.428 0.957,-0.957 v -5.102 c 0,-0.529 -0.428,-0.957 -0.957,-0.957 m -57.097,-9.241 h -5.103 c -0.529,0 -0.957,0.429 -0.957,0.957 0,0.529 0.428,0.957 0.957,0.957 h 5.103 c 0.528,0 0.957,-0.428 0.957,-0.957 0,-0.528 -0.429,-0.957 -0.957,-0.957 m 10.206,0 h -5.103 c -0.529,0 -0.957,0.429 -0.957,0.957 0,0.529 0.428,0.957 0.957,0.957 h 5.103 c 0.528,0 0.956,-0.428 0.956,-0.957 0,-0.528 -0.428,-0.957 -0.956,-0.957 m 10.205,0 h -5.103 c -0.528,0 -0.956,0.429 -0.956,0.957 0,0.529 0.428,0.957 0.956,0.957 h 5.103 c 0.529,0 0.957,-0.428 0.957,-0.957 0,-0.528 -0.428,-0.957 -0.957,-0.957 m 10.206,0 H 8.851 c -0.528,0 -0.957,0.429 -0.957,0.957 0,0.529 0.429,0.957 0.957,0.957 h 5.103 c 0.529,0 0.957,-0.428 0.957,-0.957 0,-0.528 -0.428,-0.957 -0.957,-0.957 m 10.206,0 h -5.103 c -0.529,0 -0.957,0.429 -0.957,0.957 0,0.529 0.428,0.957 0.957,0.957 h 5.103 c 0.528,0 0.957,-0.428 0.957,-0.957 0,-0.528 -0.429,-0.957 -0.957,-0.957 m 10.206,0 h -5.103 c -0.529,0 -0.957,0.429 -0.957,0.957 0,0.529 0.428,0.957 0.957,0.957 h 5.103 c 0.528,0 0.956,-0.428 0.956,-0.957 0,-0.528 -0.428,-0.957 -0.956,-0.957 m 6.068,0 h -0.965 c -0.529,0 -0.957,0.429 -0.957,0.957 0,0.529 0.428,0.957 0.957,0.957 h 0.008 v 3.181 c 0,0.528 0.428,0.956 0.957,0.956 0.529,0 0.957,-0.428 0.957,-0.956 v -4.138 c 0,-0.528 -0.428,-0.957 -0.957,-0.957" /></g></g></g><g
         transform="rotate(-18.793274,536.34712,-406.09201)"
         id="g840"><text
           transform="matrix(1,0,0,-1,98.4082,254.8135)"
           style="font-variant:normal;font-weight:bold;font-stretch:normal;font-size:27.08449936px;font-family:'Bebas Neue Bold';-inkscape-font-specification:BebasNeueBold;writing-mode:lr-tb;fill:#ef9e20;fill-opacity:1;fill-rule:nonzero;stroke:none"
           id="text432"><tspan
             x="0"
             y="0"
             id="tspan430">$</tspan></text>
<g
           id="g434"><g
             id="g436"
             clip-path="url(#clipPath440)"><g
               id="g442"
               transform="translate(124.5415,226.4663)"><path
                 d="m 0,0 c 0,-10.366 -8.403,-18.77 -18.77,-18.77 -10.366,0 -18.769,8.404 -18.769,18.77 0,10.366 8.403,18.77 18.769,18.77 C -8.403,18.77 0,10.366 0,0"
                 style="fill:#ef9e20;fill-opacity:1;fill-rule:nonzero;stroke:none"
                 id="path444"
                 inkscape:connector-curvature="0" /></g><g
               id="g446"
               transform="translate(120.8819,226.4663)"><path
                 d="m 0,0 c 0,-8.345 -6.765,-15.11 -15.11,-15.11 -8.345,0 -15.11,6.765 -15.11,15.11 0,8.345 6.765,15.11 15.11,15.11 C -6.765,15.11 0,8.345 0,0"
                 style="fill:#f6ca10;fill-opacity:1;fill-rule:nonzero;stroke:none"
                 id="path448"
                 inkscape:connector-curvature="0" /></g></g></g><text
           transform="matrix(1,0,0,-1,100.4092,217.3799)"
           style="font-variant:normal;font-weight:bold;font-stretch:normal;font-size:27.08449936px;font-family:'Bebas Neue Bold';-inkscape-font-specification:BebasNeueBold;writing-mode:lr-tb;fill:#ef9e20;fill-opacity:1;fill-rule:nonzero;stroke:none"
           id="text452"><tspan
             x="0"
             y="0"
             id="tspan450">$</tspan></text>
<g
           id="g765"
           transform="matrix(0.70102963,0.29185311,-0.32646558,0.78416861,47.892956,154.6846)"><g
             transform="translate(129.9176,127.5239)"
             id="g506"><path
               inkscape:connector-curvature="0"
               id="path508"
               style="fill:#348453;fill-opacity:1;fill-rule:nonzero;stroke:none"
               d="M 0,0 -57.936,-34.321 -78.321,0.09 -20.385,34.411 Z" /></g><g
             transform="translate(125.0119,128.7454)"
             id="g510"><path
               inkscape:connector-curvature="0"
               id="path512"
               style="fill:#96c84e;fill-opacity:1;fill-rule:nonzero;stroke:none"
               d="m 0,0 -51.247,-30.359 -16.979,28.661 51.247,30.359 z" /></g><g
             transform="translate(100.0946,156.3446)"
             id="g514"><path
               inkscape:connector-curvature="0"
               id="path516"
               style="fill:#348453;fill-opacity:1;fill-rule:nonzero;stroke:none"
               d="M 0,0 C 0,0 5.719,-12.701 16.493,-6.319 L 9.438,5.591 Z" /></g><g
             transform="translate(61.0337,133.2048)"
             id="g518"><path
               inkscape:connector-curvature="0"
               id="path520"
               style="fill:#348453;fill-opacity:1;fill-rule:nonzero;stroke:none"
               d="M 0,0 C 0,0 8.391,-11.118 -2.382,-17.5 L -9.438,-5.591 Z" /></g><g
             transform="translate(81.098102,99.335402)"
             id="g522"><path
               inkscape:connector-curvature="0"
               id="path524"
               style="fill:#348453;fill-opacity:1;fill-rule:nonzero;stroke:none"
               d="m 0,0 c 0,0 -5.719,12.701 -16.493,6.319 l 7.055,-11.91 z" /></g><g
             transform="translate(120.159,122.4752)"
             id="g526"><path
               inkscape:connector-curvature="0"
               id="path528"
               style="fill:#348453;fill-opacity:1;fill-rule:nonzero;stroke:none"
               d="M 0,0 C 0,0 -8.391,11.118 2.382,17.5 L 9.438,5.591 Z" /></g><g
             transform="translate(102.0901,133.7799)"
             id="g530"><path
               inkscape:connector-curvature="0"
               id="path532"
               style="fill:#348453;fill-opacity:1;fill-rule:nonzero;stroke:none"
               d="m 0,0 c 3.803,-6.419 1.682,-14.706 -4.738,-18.509 -6.419,-3.803 -14.706,-1.682 -18.509,4.738 -3.802,6.419 -1.681,14.706 4.738,18.509 C -12.09,8.54 -3.803,6.419 0,0" /></g><g
             transform="translate(110.3386,139.5644)"
             id="g534"><path
               inkscape:connector-curvature="0"
               id="path536"
               style="fill:#348453;fill-opacity:1;fill-rule:nonzero;stroke:none"
               d="m 0,0 c 0.955,-1.612 0.422,-3.694 -1.19,-4.649 -1.612,-0.955 -3.694,-0.422 -4.649,1.19 -0.955,1.612 -0.422,3.694 1.19,4.649 C -3.037,2.145 -0.955,1.612 0,0" /></g><g
             transform="translate(75.754997,119.077)"
             id="g538"><path
               inkscape:connector-curvature="0"
               id="path540"
               style="fill:#348453;fill-opacity:1;fill-rule:nonzero;stroke:none"
               d="m 0,0 c 0.955,-1.612 0.422,-3.694 -1.19,-4.649 -1.612,-0.955 -3.694,-0.422 -4.649,1.19 -0.955,1.612 -0.422,3.694 1.19,4.649 C -3.037,2.145 -0.955,1.612 0,0" /></g><text
             id="text544"
             style="font-variant:normal;font-weight:bold;font-stretch:normal;font-size:25.10998154px;font-family:'Bebas Neue Bold';-inkscape-font-specification:BebasNeueBold;writing-mode:lr-tb;fill:#96c84e;fill-opacity:1;fill-rule:nonzero;stroke:none"
             transform="matrix(0.86036301,0.50968176,0.50968176,-0.86036301,89.794,117.9125)"><tspan
               id="tspan542"
               y="0"
               x="0">$</tspan></text>
<g
             id="g546"><g
               clip-path="url(#clipPath552)"
               id="g548"><path
                 inkscape:connector-curvature="0"
                 id="path554"
                 style="fill:#ef9e20;fill-opacity:1;fill-rule:nonzero;stroke:none"
                 d="M 119.808,71.311 H 51.483 v 55.548 h 68.325 z" /><path
                 inkscape:connector-curvature="0"
                 id="path556"
                 style="fill:#f58a28;fill-opacity:1;fill-rule:nonzero;stroke:none"
                 d="M 119.912,71.311 H 85.645 v 55.548 h 34.267 z" /><g
                 transform="translate(56.4862,120.3562)"
                 id="g558"><path
                   inkscape:connector-curvature="0"
                   id="path560"
                   style="fill:#fffaef;fill-opacity:1;fill-rule:nonzero;stroke:none"
                   d="m 0,0 h -5.103 c -0.528,0 -0.957,0.428 -0.957,0.957 0,0.528 0.429,0.957 0.957,0.957 H 0 C 0.529,1.914 0.957,1.485 0.957,0.957 0.957,0.428 0.529,0 0,0 M 10.206,0 H 5.103 C 4.574,0 4.146,0.428 4.146,0.957 c 0,0.528 0.428,0.957 0.957,0.957 h 5.103 c 0.528,0 0.957,-0.429 0.957,-0.957 C 11.163,0.428 10.734,0 10.206,0 m 10.206,0 h -5.103 c -0.529,0 -0.957,0.428 -0.957,0.957 0,0.528 0.428,0.957 0.957,0.957 h 5.103 c 0.528,0 0.956,-0.429 0.956,-0.957 C 21.368,0.428 20.94,0 20.412,0 m 10.205,0 h -5.103 c -0.528,0 -0.956,0.428 -0.956,0.957 0,0.528 0.428,0.957 0.956,0.957 h 5.103 c 0.529,0 0.957,-0.429 0.957,-0.957 C 31.574,0.428 31.146,0 30.617,0 M 40.823,0 H 35.72 c -0.528,0 -0.957,0.428 -0.957,0.957 0,0.528 0.429,0.957 0.957,0.957 h 5.103 c 0.529,0 0.957,-0.429 0.957,-0.957 C 41.78,0.428 41.352,0 40.823,0 m 10.206,0 h -5.103 c -0.529,0 -0.957,0.428 -0.957,0.957 0,0.528 0.428,0.957 0.957,0.957 h 5.103 c 0.528,0 0.957,-0.429 0.957,-0.957 C 51.986,0.428 51.557,0 51.029,0 m 6.956,-3.249 c -0.528,0 -0.957,0.428 -0.957,0.956 V 0 h -0.896 c -0.529,0 -0.957,0.428 -0.957,0.957 0,0.528 0.428,0.957 0.957,0.957 h 1.853 c 0.529,0 0.957,-0.429 0.957,-0.957 v -3.25 c 0,-0.528 -0.428,-0.956 -0.957,-0.956 m 0,-10.206 c -0.528,0 -0.957,0.428 -0.957,0.957 v 5.103 c 0,0.528 0.429,0.956 0.957,0.956 0.529,0 0.957,-0.428 0.957,-0.956 v -5.103 c 0,-0.529 -0.428,-0.957 -0.957,-0.957 m 0,-10.206 c -0.528,0 -0.957,0.428 -0.957,0.957 v 5.103 c 0,0.528 0.429,0.957 0.957,0.957 0.529,0 0.957,-0.429 0.957,-0.957 v -5.103 c 0,-0.529 -0.428,-0.957 -0.957,-0.957 m 0,-10.205 c -0.528,0 -0.957,0.428 -0.957,0.956 v 5.103 c 0,0.529 0.429,0.957 0.957,0.957 0.529,0 0.957,-0.428 0.957,-0.957 v -5.103 c 0,-0.528 -0.428,-0.956 -0.957,-0.956 m 0,-10.206 c -0.528,0 -0.957,0.428 -0.957,0.957 v 5.103 c 0,0.528 0.429,0.956 0.957,0.956 0.529,0 0.957,-0.428 0.957,-0.956 v -5.103 c 0,-0.529 -0.428,-0.957 -0.957,-0.957 M 3.589,-45.808 h -5.103 c -0.528,0 -0.956,0.428 -0.956,0.957 0,0.528 0.428,0.956 0.956,0.956 h 5.103 c 0.529,0 0.957,-0.428 0.957,-0.956 0,-0.529 -0.428,-0.957 -0.957,-0.957 m 10.206,0 H 8.692 c -0.528,0 -0.957,0.428 -0.957,0.957 0,0.528 0.429,0.956 0.957,0.956 h 5.103 c 0.529,0 0.957,-0.428 0.957,-0.956 0,-0.529 -0.428,-0.957 -0.957,-0.957 m 10.206,0 h -5.103 c -0.529,0 -0.957,0.428 -0.957,0.957 0,0.528 0.428,0.956 0.957,0.956 h 5.103 c 0.528,0 0.957,-0.428 0.957,-0.956 0,-0.529 -0.429,-0.957 -0.957,-0.957 m 10.205,0 h -5.102 c -0.529,0 -0.957,0.428 -0.957,0.957 0,0.528 0.428,0.956 0.957,0.956 h 5.102 c 0.529,0 0.957,-0.428 0.957,-0.956 0,-0.529 -0.428,-0.957 -0.957,-0.957 m 10.206,0 h -5.103 c -0.528,0 -0.956,0.428 -0.956,0.957 0,0.528 0.428,0.956 0.956,0.956 h 5.103 c 0.529,0 0.957,-0.428 0.957,-0.956 0,-0.529 -0.428,-0.957 -0.957,-0.957 m 10.206,0 h -5.103 c -0.528,0 -0.957,0.428 -0.957,0.957 0,0.528 0.429,0.956 0.957,0.956 h 5.103 c 0.529,0 0.957,-0.428 0.957,-0.956 0,-0.529 -0.428,-0.957 -0.957,-0.957" /></g><path
                 inkscape:connector-curvature="0"
                 id="path562"
                 style="fill:#f05a28;fill-opacity:1;fill-rule:nonzero;stroke:none"
                 d="M 127.459,87.131 H 98.408 v 19.83 h 29.051 z" /><g
                 transform="translate(112.0078,97.046)"
                 id="g564"><path
                   inkscape:connector-curvature="0"
                   id="path566"
                   style="fill:#f5f1e3;fill-opacity:1;fill-rule:nonzero;stroke:none"
                   d="m 0,0 c 0,-2.549 -2.066,-4.615 -4.615,-4.615 -2.548,0 -4.614,2.066 -4.614,4.615 0,2.549 2.066,4.615 4.614,4.615 C -2.066,4.615 0,2.549 0,0" /></g><g
                 transform="translate(68.1585,86.3007)"
                 id="g568"><path
                   inkscape:connector-curvature="0"
                   id="path570"
                   style="fill:#ef9e20;fill-opacity:1;fill-rule:nonzero;stroke:none"
                   d="m 0,0 c 0,-8.381 -6.794,-15.175 -15.175,-15.175 -8.381,0 -15.175,6.794 -15.175,15.175 0,8.381 6.794,15.175 15.175,15.175 C -6.794,15.175 0,8.381 0,0" /></g><g
                 transform="translate(65.1997,86.3007)"
                 id="g572"><path
                   inkscape:connector-curvature="0"
                   id="path574"
                   style="fill:#f6ca10;fill-opacity:1;fill-rule:nonzero;stroke:none"
                   d="m 0,0 c 0,-6.747 -5.469,-12.216 -12.216,-12.216 -6.747,0 -12.217,5.469 -12.217,12.216 0,6.747 5.47,12.216 12.217,12.216 C -5.469,12.216 0,6.747 0,0" /></g></g></g><text
             id="text578"
             style="font-variant:normal;font-weight:bold;font-stretch:normal;font-size:21.8973999px;font-family:'Bebas Neue Bold';-inkscape-font-specification:BebasNeueBold;writing-mode:lr-tb;fill:#ef9e20;fill-opacity:1;fill-rule:nonzero;stroke:none"
             transform="matrix(1,0,0,-1,48.6479,78.9551)"><tspan
               id="tspan576"
               y="0"
               x="0">$</tspan></text>
</g><g
           id="g783"
           transform="translate(44.94323,-12.733915)"><g
             transform="translate(-29.2131,2.9962154)"
             id="g454"><g
               clip-path="url(#clipPath460)"
               id="g456"><g
                 transform="translate(77.116,237.8687)"
                 id="g482"><path
                   inkscape:connector-curvature="0"
                   id="path484"
                   style="fill:#ef9e20;fill-opacity:1;fill-rule:nonzero;stroke:none"
                   d="m 0,0 c 0,-10.366 -8.403,-18.77 -18.77,-18.77 -10.366,0 -18.769,8.404 -18.769,18.77 0,10.366 8.403,18.77 18.769,18.77 C -8.403,18.77 0,10.366 0,0" /></g><g
                 transform="translate(73.4563,237.8687)"
                 id="g486"><path
                   inkscape:connector-curvature="0"
                   id="path488"
                   style="fill:#f6ca10;fill-opacity:1;fill-rule:nonzero;stroke:none"
                   d="m 0,0 c 0,-8.345 -6.765,-15.11 -15.11,-15.11 -8.345,0 -15.11,6.765 -15.11,15.11 0,8.345 6.765,15.11 15.11,15.11 C -6.765,15.11 0,8.345 0,0" /></g></g></g><text
             y="-233.27652"
             x="20.025532"
             id="text492"
             style="font-variant:normal;font-weight:bold;font-stretch:normal;font-size:27.08449936px;font-family:'Bebas Neue Bold';-inkscape-font-specification:BebasNeueBold;writing-mode:lr-tb;fill:#ef9e20;fill-opacity:1;fill-rule:nonzero;stroke:none"
             transform="scale(1,-1)"><tspan
               id="tspan490"
               y="-233.27652"
               x="20.025532">$</tspan></text>
</g></g></g></g></svg>